<svg aria-hidden="true" style="position: absolute; width: 0; height: 0; overflow: hidden;" version="1.1" xmlns="http://www.w3.org/2000/svg" xmlns:xlink="http://www.w3.org/1999/xlink">
<defs>
<symbol id="icon-logo" viewBox="0 0 96 32">
<path fill="#fff" style="fill: var(--color1, #fff)" d="M15.037 5.92c0-0.707-0.163-1.405-0.478-2.037-0.271-0.547-0.431-1.143-0.469-1.753l-0.091-1.463-0.091 1.463c-0.038 0.61-0.197 1.206-0.469 1.753-0.314 0.633-0.478 1.33-0.478 2.037v20.827c0 0.707 0.164 1.405 0.478 2.037 0.271 0.547 0.431 1.143 0.469 1.753l0.091 1.463 0.091-1.463c0.038-0.61 0.197-1.206 0.469-1.753 0.314-0.633 0.478-1.33 0.478-2.037v-20.827zM9.374 5.971c0.314 0.633 0.478 1.33 0.478 2.037v16.649c0 0.707-0.163 1.405-0.478 2.037-0.271 0.547-0.431 1.143-0.469 1.753l-0.091 1.463-0.091-1.463c-0.038-0.61-0.197-1.206-0.469-1.753-0.314-0.633-0.478-1.33-0.478-2.037v-16.649c0-0.707 0.163-1.405 0.478-2.037 0.271-0.547 0.431-1.143 0.469-1.753l0.091-1.463 0.091 1.463c0.038 0.61 0.197 1.206 0.469 1.753zM7.259 10.098c0-0.707-0.163-1.405-0.478-2.037-0.271-0.547-0.431-1.143-0.469-1.753l-0.091-1.463-0.091 1.463c-0.038 0.61-0.197 1.206-0.469 1.753-0.314 0.633-0.478 1.33-0.478 2.037v12.471c0 0.707 0.163 1.405 0.478 2.037 0.271 0.547 0.431 1.143 0.469 1.753l0.091 1.463 0.091-1.463c0.038-0.61 0.197-1.206 0.469-1.753 0.314-0.633 0.478-1.33 0.478-2.037v-12.471zM4.189 12.238c0.314 0.633 0.478 1.33 0.478 2.037v4.116c0 0.707-0.163 1.405-0.478 2.037-0.271 0.547-0.431 1.143-0.469 1.753l-0.091 1.463-0.091-1.463c-0.038-0.61-0.197-1.206-0.469-1.753-0.314-0.633-0.478-1.33-0.478-2.037v-4.116c0-0.707 0.163-1.405 0.478-2.037 0.271-0.547 0.431-1.143 0.469-1.753l0.091-1.463 0.091 1.463c0.038 0.61 0.197 1.206 0.469 1.753zM2.074 16.333l0 0.031v-0.062l-0 0.031zM0 16.364l0-0.031c0.005 0.697 0.168 1.383 0.477 2.006 0.271 0.547 0.431 1.143 0.469 1.753l0.091 1.463 0.091-1.463c0.038-0.61 0.197-1.206 0.469-1.753 0.309-0.623 0.473-1.31 0.477-2.006-0.005-0.697-0.168-1.383-0.477-2.006-0.271-0.547-0.431-1.143-0.469-1.753l-0.091-1.463-0.091 1.463c-0.038 0.61-0.197 1.206-0.469 1.753-0.309 0.623-0.473 1.31-0.477 2.006l-0-0.031v0.062zM11.967 3.883c0.314 0.633 0.478 1.33 0.478 2.037v20.827c0 0.707-0.163 1.405-0.478 2.037-0.271 0.547-0.431 1.143-0.469 1.753l-0.091 1.463-0.091-1.463c-0.038-0.61-0.197-1.206-0.469-1.753-0.314-0.633-0.478-1.33-0.478-2.037v-20.827c0-0.707 0.163-1.405 0.478-2.037 0.271-0.547 0.431-1.143 0.469-1.753l0.091-1.463 0.091 1.463c0.038 0.61 0.197 1.206 0.469 1.753zM17.152 3.883c0.314 0.633 0.478 1.33 0.478 2.037v20.827c0 0.707-0.163 1.405-0.478 2.037-0.271 0.547-0.431 1.143-0.469 1.753l-0.091 1.463-0.091-1.463c-0.038-0.61-0.197-1.206-0.469-1.753-0.314-0.633-0.478-1.33-0.478-2.037v-20.827c0-0.707 0.163-1.405 0.478-2.037 0.271-0.547 0.431-1.143 0.469-1.753l0.091-1.463 0.091 1.463c0.038 0.61 0.197 1.206 0.469 1.753zM20.222 8.009c0-0.707-0.163-1.405-0.478-2.037-0.271-0.547-0.431-1.143-0.469-1.753l-0.091-1.463-0.091 1.463c-0.038 0.61-0.197 1.206-0.469 1.753-0.314 0.633-0.478 1.33-0.478 2.037v16.649c0 0.707 0.163 1.405 0.478 2.037 0.271 0.547 0.431 1.143 0.469 1.753l0.091 1.463 0.091-1.463c0.038-0.61 0.197-1.206 0.469-1.753 0.314-0.633 0.478-1.33 0.478-2.037v-16.649zM22.337 8.060c0.314 0.633 0.478 1.33 0.478 2.037v12.471c0 0.707-0.163 1.405-0.478 2.037-0.271 0.547-0.431 1.143-0.469 1.753l-0.091 1.463-0.091-1.463c-0.038-0.61-0.197-1.206-0.469-1.753-0.314-0.633-0.478-1.33-0.478-2.037v-12.471c0-0.707 0.164-1.405 0.478-2.037 0.271-0.547 0.431-1.143 0.469-1.753l0.091-1.463 0.091 1.463c0.038 0.61 0.197 1.206 0.469 1.753zM25.407 14.275c0-0.707-0.163-1.405-0.478-2.037-0.271-0.547-0.431-1.143-0.469-1.753l-0.091-1.463-0.091 1.463c-0.038 0.61-0.197 1.206-0.469 1.753-0.314 0.633-0.478 1.33-0.478 2.037v4.116c0 0.707 0.164 1.405 0.478 2.037 0.271 0.547 0.431 1.143 0.469 1.753l0.091 1.463 0.091-1.463c0.038-0.61 0.197-1.206 0.469-1.753 0.314-0.633 0.478-1.33 0.478-2.037v-4.116zM28 16.333c0 0.010 0 0.021 0 0.031v-0.062c0 0.010-0 0.021-0 0.031zM25.926 16.333c0.005 0.697 0.168 1.383 0.477 2.006 0.271 0.547 0.431 1.143 0.469 1.753l0.091 1.463 0.091-1.463c0.038-0.61 0.197-1.206 0.469-1.753 0.309-0.623 0.473-1.31 0.477-2.006-0.005-0.697-0.168-1.383-0.477-2.006-0.271-0.547-0.431-1.143-0.469-1.753l-0.091-1.463-0.091 1.463c-0.038 0.61-0.197 1.206-0.469 1.753-0.309 0.623-0.473 1.31-0.477 2.006zM25.926 16.333c-0-0.010-0-0.021-0-0.031v0.062c0-0.010 0-0.021 0-0.031z"></path>
<path fill="#fff" style="fill: var(--color1, #fff)" d="M33.933 20.667c-0.089 0-0.169-0.031-0.24-0.093-0.062-0.062-0.093-0.142-0.093-0.24v-8.667c0-0.098 0.031-0.178 0.093-0.24 0.071-0.062 0.151-0.093 0.24-0.093h1.44c0.142 0 0.249 0.040 0.32 0.12 0.080 0.071 0.129 0.129 0.147 0.173l2.347 4.213 2.347-4.213c0.027-0.044 0.071-0.102 0.133-0.173 0.071-0.080 0.182-0.12 0.333-0.12h1.427c0.098 0 0.178 0.031 0.24 0.093 0.071 0.062 0.107 0.142 0.107 0.24v8.667c0 0.098-0.036 0.178-0.107 0.24-0.062 0.062-0.142 0.093-0.24 0.093h-1.587c-0.098 0-0.182-0.031-0.253-0.093-0.062-0.062-0.093-0.142-0.093-0.24v-5l-1.507 2.787c-0.036 0.080-0.089 0.151-0.16 0.213s-0.169 0.093-0.293 0.093h-0.693c-0.124 0-0.222-0.031-0.293-0.093s-0.129-0.133-0.173-0.213l-1.507-2.787v5c0 0.098-0.031 0.178-0.093 0.24s-0.142 0.093-0.24 0.093h-1.6zM47.762 20.8c-0.747 0-1.378-0.12-1.893-0.36-0.507-0.24-0.898-0.582-1.173-1.027-0.267-0.453-0.418-0.991-0.453-1.613-0.009-0.178-0.013-0.378-0.013-0.6 0-0.231 0.004-0.431 0.013-0.6 0.036-0.631 0.196-1.169 0.48-1.613s0.68-0.787 1.187-1.027c0.516-0.24 1.133-0.36 1.853-0.36 0.729 0 1.347 0.12 1.853 0.36 0.516 0.24 0.916 0.582 1.2 1.027s0.444 0.982 0.48 1.613c0.009 0.169 0.013 0.369 0.013 0.6 0 0.222-0.004 0.422-0.013 0.6-0.036 0.622-0.191 1.16-0.467 1.613-0.267 0.444-0.658 0.787-1.173 1.027-0.507 0.24-1.138 0.36-1.893 0.36zM47.762 19.173c0.4 0 0.689-0.12 0.867-0.36 0.187-0.24 0.293-0.6 0.32-1.080 0.009-0.133 0.013-0.311 0.013-0.533s-0.004-0.4-0.013-0.533c-0.027-0.471-0.133-0.827-0.32-1.067-0.178-0.249-0.467-0.373-0.867-0.373-0.391 0-0.68 0.124-0.867 0.373-0.187 0.24-0.289 0.596-0.307 1.067-0.009 0.133-0.013 0.311-0.013 0.533s0.004 0.4 0.013 0.533c0.018 0.48 0.12 0.84 0.307 1.080s0.476 0.36 0.867 0.36zM52.953 20.667c-0.098 0-0.178-0.031-0.24-0.093s-0.093-0.142-0.093-0.24v-6.267c0-0.098 0.031-0.178 0.093-0.24s0.142-0.093 0.24-0.093h1.533c0.098 0 0.178 0.031 0.24 0.093s0.093 0.142 0.093 0.24v0.507c0.231-0.276 0.533-0.507 0.907-0.693s0.813-0.28 1.32-0.28c0.516 0 0.969 0.116 1.36 0.347 0.4 0.231 0.711 0.573 0.933 1.027 0.231 0.444 0.347 0.991 0.347 1.64v3.72c0 0.098-0.036 0.178-0.107 0.24-0.062 0.062-0.138 0.093-0.227 0.093h-1.68c-0.089 0-0.169-0.031-0.24-0.093-0.062-0.062-0.093-0.142-0.093-0.24v-3.64c0-0.418-0.102-0.738-0.307-0.96-0.196-0.231-0.489-0.347-0.88-0.347-0.364 0-0.658 0.116-0.88 0.347-0.213 0.222-0.32 0.542-0.32 0.96v3.64c0 0.098-0.036 0.178-0.107 0.24-0.062 0.062-0.138 0.093-0.227 0.093h-1.667zM64.375 20.8c-1.049 0-1.884-0.284-2.507-0.853s-0.947-1.413-0.973-2.533c0-0.062 0-0.142 0-0.24s0-0.173 0-0.227c0.027-0.702 0.182-1.302 0.467-1.8 0.293-0.507 0.693-0.889 1.2-1.147 0.516-0.267 1.116-0.4 1.8-0.4 0.782 0 1.427 0.156 1.933 0.467 0.515 0.311 0.902 0.733 1.16 1.267s0.387 1.142 0.387 1.827v0.32c0 0.098-0.035 0.178-0.107 0.24-0.062 0.062-0.138 0.093-0.227 0.093h-4.267c0 0.009 0 0.022 0 0.040s0 0.036 0 0.053c0.009 0.258 0.053 0.493 0.133 0.707s0.204 0.382 0.373 0.507c0.169 0.124 0.373 0.187 0.613 0.187 0.178 0 0.324-0.027 0.44-0.080 0.124-0.062 0.227-0.129 0.307-0.2 0.080-0.080 0.142-0.147 0.187-0.2 0.080-0.089 0.142-0.142 0.187-0.16 0.053-0.027 0.133-0.040 0.24-0.040h1.653c0.089 0 0.16 0.027 0.213 0.080 0.062 0.044 0.089 0.111 0.080 0.2-0.009 0.151-0.085 0.333-0.227 0.547s-0.351 0.427-0.627 0.64c-0.267 0.204-0.604 0.373-1.013 0.507s-0.884 0.2-1.427 0.2zM63.241 16.493h2.253v-0.027c0-0.284-0.044-0.533-0.133-0.747-0.080-0.213-0.209-0.378-0.387-0.493-0.169-0.116-0.373-0.173-0.613-0.173s-0.444 0.058-0.613 0.173c-0.16 0.116-0.284 0.28-0.373 0.493s-0.133 0.462-0.133 0.747v0.027zM70.085 23.2c-0.080 0-0.147-0.027-0.2-0.080s-0.080-0.12-0.080-0.2c0-0.018 0-0.044 0-0.080 0.009-0.027 0.022-0.058 0.040-0.093l1.040-2.507-2.56-6.053c-0.027-0.062-0.040-0.116-0.040-0.16 0.017-0.080 0.053-0.147 0.107-0.2 0.053-0.062 0.12-0.093 0.2-0.093h1.52c0.115 0 0.2 0.031 0.253 0.093 0.062 0.053 0.102 0.116 0.12 0.187l1.533 3.88 1.56-3.88c0.035-0.071 0.080-0.133 0.133-0.187 0.062-0.062 0.151-0.093 0.267-0.093h1.493c0.080 0 0.147 0.031 0.2 0.093 0.062 0.053 0.093 0.116 0.093 0.187 0 0.044-0.013 0.102-0.040 0.173l-3.773 8.733c-0.027 0.071-0.071 0.133-0.133 0.187-0.063 0.062-0.151 0.093-0.267 0.093h-1.467zM77.227 20.667c-0.097 0-0.177-0.031-0.24-0.093s-0.093-0.142-0.093-0.24v-8.667c0-0.098 0.031-0.178 0.093-0.24s0.143-0.093 0.24-0.093h6.12c0.098 0 0.178 0.031 0.24 0.093 0.071 0.062 0.107 0.142 0.107 0.24v1.347c0 0.098-0.035 0.178-0.107 0.24-0.062 0.062-0.142 0.093-0.24 0.093h-4.107v1.96h3.84c0.098 0 0.178 0.036 0.24 0.107 0.071 0.062 0.107 0.142 0.107 0.24v1.333c0 0.089-0.035 0.169-0.107 0.24-0.062 0.062-0.142 0.093-0.24 0.093h-3.84v3.013c0 0.098-0.031 0.178-0.093 0.24s-0.142 0.093-0.24 0.093h-1.68zM85.31 20.667c-0.098 0-0.178-0.031-0.24-0.093s-0.093-0.142-0.093-0.24v-8.8c0-0.098 0.031-0.178 0.093-0.24s0.142-0.093 0.24-0.093h1.573c0.098 0 0.178 0.031 0.24 0.093s0.093 0.142 0.093 0.24v8.8c0 0.098-0.031 0.178-0.093 0.24s-0.142 0.093-0.24 0.093h-1.573zM92.072 20.8c-0.747 0-1.378-0.12-1.893-0.36-0.507-0.24-0.898-0.582-1.173-1.027-0.267-0.453-0.418-0.991-0.453-1.613-0.009-0.178-0.013-0.378-0.013-0.6 0-0.231 0.004-0.431 0.013-0.6 0.035-0.631 0.195-1.169 0.48-1.613s0.68-0.787 1.187-1.027c0.515-0.24 1.133-0.36 1.853-0.36 0.729 0 1.347 0.12 1.853 0.36 0.515 0.24 0.915 0.582 1.2 1.027s0.444 0.982 0.48 1.613c0.009 0.169 0.013 0.369 0.013 0.6 0 0.222-0.005 0.422-0.013 0.6-0.036 0.622-0.191 1.16-0.467 1.613-0.267 0.444-0.658 0.787-1.173 1.027-0.507 0.24-1.138 0.36-1.893 0.36zM92.072 19.173c0.4 0 0.689-0.12 0.867-0.36 0.187-0.24 0.293-0.6 0.32-1.080 0.009-0.133 0.013-0.311 0.013-0.533s-0.005-0.4-0.013-0.533c-0.027-0.471-0.133-0.827-0.32-1.067-0.178-0.249-0.467-0.373-0.867-0.373-0.391 0-0.68 0.124-0.867 0.373-0.187 0.24-0.289 0.596-0.307 1.067-0.009 0.133-0.013 0.311-0.013 0.533s0.004 0.4 0.013 0.533c0.017 0.48 0.12 0.84 0.307 1.080s0.475 0.36 0.867 0.36z"></path>
</symbol>
</defs>
</svg>
